<svg width="0" height="0" class="hidden">
    <symbol fill="none" xmlns="http://www.w3.org/2000/svg" viewBox="0 0 24 38" id="logo">
        <g clip-path="url(#clip0_2_90)">
            <path d="M16.9928 6.37323H15.6624C15.4809 6.37323 15.3298 6.52284 15.3298 6.70236V15.4394V15.4693C15.3298 17.2945 13.8482 18.7606 12.0038 18.7606C10.1594 18.7606 8.6778 17.2945 8.6778 15.4693V15.4394V6.70236C8.6778 6.52284 8.52661 6.37323 8.3452 6.37323H7.0148C6.83339 6.37323 6.68221 6.52284 6.68221 6.70236V15.4693C6.68221 18.3417 9.01039 20.6756 11.9131 20.7354H12.034H12.155C15.0274 20.6756 17.3858 18.3417 17.3858 15.4693V6.70236C17.3556 6.52284 17.2044 6.37323 16.9928 6.37323V6.37323Z" fill="black"></path>
            <path d="M23.4633 0.119686H0.574491C0.332601 0.119686 0.151184 0.299214 0.151184 0.538584V18.1323V20.1969V37.5811C0.151184 37.8205 0.332601 38 0.574491 38H23.4633C23.7052 38 23.8866 37.8205 23.8866 37.5811V20.1969V18.1323V0.538584C23.8866 0.299214 23.7052 0.119686 23.4633 0.119686V0.119686ZM2.0863 2.45354V2.2441C2.0863 2.12441 2.17701 2.00473 2.32819 2.00473H2.53985H21.5584H21.7701C21.891 2.00473 22.012 2.09449 22.012 2.2441V2.45354V19.389L12.3666 28.9339L12.2154 29.0835C12.1247 29.1732 11.9735 29.1732 11.8828 29.0835L11.7317 28.9339L2.0863 19.389V2.45354ZM21.9515 35.6661V35.8756C21.9515 35.9953 21.8608 36.115 21.7096 36.115H21.498H2.50961H2.29796C2.17701 36.115 2.05607 36.0252 2.05607 35.8756V35.6661V22.0819L11.7014 31.6268C11.8526 31.7764 12.1247 31.7764 12.3061 31.6268L21.9515 22.0819V35.6661Z" fill="black"></path>
        </g>
        <defs>
            <clipPath id="clip0_2_90">
                <rect width="24" height="38" fill="white"></rect>
            </clipPath>
        </defs>
    </symbol>

    <symbol fill="none" xmlns="http://www.w3.org/2000/svg" viewBox="0 0 18 18" id="cart">
        <g clip-path="url(#clip0_2_68)">
        <path d="M17.6292 3.39392H7.13201C7.05847 3.38671 6.98451 3.40072 6.91726 3.43459C6.85001 3.46846 6.79174 3.52106 6.74808 3.5873C6.70442 3.65355 6.67684 3.7312 6.668 3.81276C6.65917 3.89432 6.66938 3.97704 6.69765 4.05293L8.35808 9.46585C8.40646 9.61525 8.49373 9.74523 8.60875 9.83922C8.72377 9.93321 8.86134 9.98696 9.00392 9.9936H15.8856C16.0282 9.98696 16.1659 9.93321 16.281 9.8392C16.3961 9.74519 16.4835 9.61517 16.5319 9.4657L17.9781 3.92316C18.0007 3.8622 18.0088 3.79578 18.0017 3.73031C17.9945 3.66484 17.9724 3.60252 17.9373 3.54934C17.9023 3.49616 17.8555 3.45391 17.8016 3.42666C17.7476 3.39942 17.6882 3.38809 17.6292 3.39377V3.39392Z" fill="black"></path>
        <path d="M9.6517 16.2298C9.6517 16.5754 9.55962 16.9132 9.38711 17.2005C9.2146 17.4878 8.9694 17.7118 8.68252 17.844C8.39564 17.9762 8.07997 18.0108 7.77542 17.9434C7.47087 17.876 7.19113 17.7096 6.97156 17.4653C6.75199 17.2209 6.60246 16.9096 6.54189 16.5707C6.48131 16.2317 6.5124 15.8804 6.63123 15.5612C6.75006 15.2419 6.95129 14.969 7.20947 14.777C7.46765 14.5851 7.7712 14.4826 8.08171 14.4826C8.28788 14.4826 8.49204 14.5278 8.68252 14.6156C8.873 14.7034 9.04607 14.8321 9.19186 14.9943C9.33765 15.1566 9.45329 15.3492 9.53219 15.5612C9.61109 15.7731 9.6517 16.0003 9.6517 16.2298Z" fill="black"></path>
        <path d="M16.2955 16.2511C16.2955 16.5967 16.2034 16.9345 16.0309 17.2218C15.8584 17.5092 15.6132 17.7331 15.3263 17.8654C15.0394 17.9976 14.7238 18.0322 14.4192 17.9648C14.1147 17.8974 13.8349 17.731 13.6154 17.4866C13.3958 17.2423 13.2463 16.9309 13.1857 16.592C13.1251 16.2531 13.1562 15.9018 13.275 15.5825C13.3939 15.2633 13.5951 14.9904 13.8533 14.7984C14.1115 14.6064 14.415 14.5039 14.7255 14.5039C15.1418 14.5042 15.541 14.6883 15.8354 15.0159C16.1298 15.3436 16.2953 15.7878 16.2955 16.2511V16.2511Z" fill="black"></path>
        <path d="M16.6117 11.7713H7.42713L3.7512 0H0.889124C0.653314 3.91049e-09 0.427162 0.104249 0.260418 0.289814C0.0936753 0.47538 0 0.72706 0 0.989489C0 1.25192 0.0936753 1.5036 0.260418 1.68916C0.427162 1.87473 0.653314 1.97898 0.889124 1.97898H2.48689L6.16281 13.7502H16.6117C16.7285 13.7502 16.8441 13.7247 16.952 13.6749C17.0598 13.6252 17.1578 13.5523 17.2404 13.4604C17.323 13.3686 17.3885 13.2595 17.4331 13.1394C17.4778 13.0194 17.5008 12.8907 17.5008 12.7608C17.5008 12.6308 17.4778 12.5021 17.4331 12.3821C17.3885 12.262 17.323 12.153 17.2404 12.0611C17.1578 11.9692 17.0598 11.8963 16.952 11.8466C16.8441 11.7969 16.7285 11.7713 16.6117 11.7713V11.7713Z" fill="black"></path>
        </g>
        <defs>
        <clipPath id="clip0_2_68">
            <rect width="18" height="18" fill="white"></rect>
        </clipPath>
        </defs>
    </symbol>

    <symbol fill="none" xmlns="http://www.w3.org/2000/svg" viewBox="0 0 30 30" id="instagram">
        <g clip-path="url(#clip0_2_449)">
            <path d="M15.0067 8.26172C10.7478 8.26172 7.31251 11.2676 7.31251 14.9941C7.31251 18.7207 10.7478 21.7266 15.0067 21.7266C19.2656 21.7266 22.7009 18.7207 22.7009 14.9941C22.7009 11.2676 19.2656 8.26172 15.0067 8.26172ZM15.0067 19.3711C12.2545 19.3711 10.0045 17.4082 10.0045 14.9941C10.0045 12.5801 12.2478 10.6172 15.0067 10.6172C17.7656 10.6172 20.0089 12.5801 20.0089 14.9941C20.0089 17.4082 17.7589 19.3711 15.0067 19.3711ZM24.8103 7.98633C24.8103 8.85937 24.0067 9.55664 23.0156 9.55664C22.0179 9.55664 21.221 8.85351 21.221 7.98633C21.221 7.11914 22.0246 6.41601 23.0156 6.41601C24.0067 6.41601 24.8103 7.11914 24.8103 7.98633ZM29.9062 9.58007C29.7924 7.47656 29.2433 5.61328 27.4821 4.07812C25.7277 2.54297 23.5982 2.0625 21.1942 1.95703C18.7165 1.83398 11.2902 1.83398 8.81251 1.95703C6.41519 2.05664 4.28573 2.53711 2.52457 4.07226C0.76341 5.60742 0.220999 7.4707 0.100464 9.57421C-0.0401611 11.7422 -0.0401611 18.2402 0.100464 20.4082C0.214303 22.5117 0.76341 24.375 2.52457 25.9101C4.28573 27.4453 6.4085 27.9258 8.81251 28.0312C11.2902 28.1543 18.7165 28.1543 21.1942 28.0312C23.5982 27.9316 25.7277 27.4512 27.4821 25.9101C29.2366 24.375 29.7857 22.5117 29.9062 20.4082C30.0469 18.2402 30.0469 11.748 29.9062 9.58007ZM26.7054 22.7344C26.183 23.8828 25.1719 24.7676 23.8527 25.2305C21.8772 25.916 17.1897 25.7578 15.0067 25.7578C12.8237 25.7578 8.12948 25.9101 6.16073 25.2305C4.84823 24.7734 3.83707 23.8887 3.30805 22.7344C2.52457 21.0058 2.70537 16.9043 2.70537 14.9941C2.70537 13.084 2.53127 8.97656 3.30805 7.2539C3.83037 6.10547 4.84153 5.2207 6.16073 4.75781C8.13617 4.07226 12.8237 4.23047 15.0067 4.23047C17.1897 4.23047 21.8839 4.07812 23.8527 4.75781C25.1652 5.21484 26.1763 6.09961 26.7054 7.2539C27.4888 8.98242 27.308 13.084 27.308 14.9941C27.308 16.9043 27.4888 21.0117 26.7054 22.7344Z" fill="black"></path>
        </g>
        <defs>
            <clipPath id="clip0_2_449">
                <rect width="30" height="30" fill="white"></rect>
            </clipPath>
        </defs>
    </symbol>

    <symbol fill="none" xmlns="http://www.w3.org/2000/svg" viewBox="0 0 30 30" id="twitter">
        <path d="M26.9162 8.88969C26.9353 9.15617 26.9353 9.42271 26.9353 9.6892C26.9353 17.8173 20.7488 27.1828 9.44162 27.1828C5.95811 27.1828 2.72209 26.1739 0 24.4227C0.494941 24.4798 0.970781 24.4988 1.48477 24.4988C4.35908 24.4988 7.00506 23.528 9.11801 21.872C6.41496 21.8148 4.14973 20.0445 3.36926 17.608C3.75 17.665 4.13068 17.7031 4.53047 17.7031C5.08248 17.7031 5.63455 17.627 6.14848 17.4938C3.33123 16.9227 1.21822 14.4481 1.21822 11.4595V11.3834C2.03672 11.8402 2.98857 12.1258 3.99738 12.1638C2.34129 11.0597 1.25631 9.17522 1.25631 7.04322C1.25631 5.90111 1.56082 4.85416 2.09385 3.94045C5.12051 7.67141 9.67002 10.1079 14.7715 10.3745C14.6763 9.9176 14.6192 9.44176 14.6192 8.96586C14.6192 5.5775 17.3603 2.81738 20.7677 2.81738C22.538 2.81738 24.1369 3.55977 25.2601 4.759C26.6496 4.49252 27.9821 3.97854 29.1623 3.27424C28.7054 4.70193 27.7346 5.90117 26.4593 6.66254C27.6966 6.52936 28.8959 6.18664 29.9999 5.7108C29.1625 6.92902 28.1154 8.014 26.9162 8.88969Z" fill="black"></path>
    </symbol>

    <symbol fill="none" xmlns="http://www.w3.org/2000/svg" viewBox="0 0 30 30" id="facebook">
        <path d="M30 3.32227V26.6719C30 27.4746 29.2567 28.1191 28.346 28.1191H20.6987V17.959H24.596L25.1786 13.998H20.692V11.4668C20.692 10.3184 21.0536 9.53906 22.9353 9.53906H25.3326V5.99414C24.9174 5.94727 23.4978 5.83594 21.8371 5.83594C18.3817 5.83594 16.0112 7.68164 16.0112 11.0742V13.998H12.1004V17.959H16.0112V28.125H1.65402C0.743304 28.125 0 27.4746 0 26.6777V3.32227C0 2.52539 0.743304 1.875 1.65402 1.875H28.3393C29.2567 1.875 30 2.52539 30 3.32227Z" fill="black"></path>
    </symbol>
</svg>